<svg width="14" height="15" viewBox="0 0 14 15" fill="none" xmlns="http://www.w3.org/2000/svg">
<path d="M13.8056 13.6028L13.2222 12.4113L12.6389 11.2199V3.97163C12.6389 3.77305 12.6389 3.57447 12.5417 3.37589C12.25 2.1844 11.1806 1.19149 9.91667 1.19149H8.94444C8.65278 0.496454 7.875 0 6.90278 0C5.93055 0 5.15278 0.496454 4.86111 1.29078H4.08333C2.625 1.29078 1.36111 2.48227 1.36111 3.97163V11.1206L0.194444 13.6028L0 14H14L13.8056 13.6028ZM1.94444 12.8085L2.04167 12.6099L2.52778 11.617V11.5177V3.97163C2.52778 3.1773 3.20833 2.48227 3.98611 2.48227H9.91667C10.6944 2.48227 11.375 3.1773 11.375 3.97163V11.4184V11.5177L11.9583 12.7092H1.94444V12.8085Z" fill="white"/>
<path d="M6.5 15C7.15217 15 7.73913 14.5714 8 14H5C5.26087 14.6429 5.84783 15 6.5 15Z" fill="white"/>
</svg>
