<svg width="19" height="19" viewBox="0 0 19 19" fill="none" xmlns="http://www.w3.org/2000/svg">
<path fill-rule="evenodd" clip-rule="evenodd" d="M8 16C12.4183 16 16 12.4183 16 8C16 3.58172 12.4183 0 8 0C3.58172 0 0 3.58172 0 8C0 12.4183 3.58172 16 8 16ZM8 14C4.68629 14 2 11.3137 2 8C2 4.68629 4.68629 2 8 2C11.3137 2 14 4.68629 14 8C14 11.3137 11.3137 14 8 14Z" fill="white"/>
<path fill-rule="evenodd" clip-rule="evenodd" d="M12.2972 13.7114L17.2772 18.6308C17.6701 19.0189 18.3033 19.015 18.6914 18.6221C19.0795 18.2292 19.0756 17.5961 18.6827 17.2079L13.7028 12.2886C13.3099 11.9005 12.6767 11.9043 12.2886 12.2972C11.9005 12.6901 11.9043 13.3233 12.2972 13.7114V13.7114Z" fill="white"/>
</svg>
