<svg width="16" height="16" viewBox="0 0 16 16" fill="none" xmlns="http://www.w3.org/2000/svg">
<path d="M8 15C11.866 15 15 11.866 15 8C15 4.13401 11.866 1 8 1C4.13401 1 1 4.13401 1 8C1 11.866 4.13401 15 8 15Z" stroke="white"/>
<path fill-rule="evenodd" clip-rule="evenodd" d="M7.871 3.992C7.057 3.992 6.419 4.223 5.957 4.696C5.495 5.158 5.264 5.785 5.264 6.588H6.419C6.419 6.104 6.518 5.73 6.716 5.466C6.936 5.147 7.299 4.993 7.794 4.993C8.19 4.993 8.509 5.103 8.729 5.323C8.938 5.543 9.048 5.84 9.048 6.225C9.048 6.511 8.938 6.775 8.74 7.028L8.553 7.237C7.871 7.842 7.453 8.293 7.31 8.601C7.156 8.887 7.09 9.239 7.09 9.646V9.833H8.267V9.646C8.267 9.382 8.322 9.14 8.443 8.92C8.542 8.722 8.696 8.524 8.905 8.348C9.422 7.897 9.73 7.611 9.829 7.49C10.104 7.138 10.247 6.687 10.247 6.148C10.247 5.488 10.027 4.96 9.587 4.575C9.147 4.179 8.575 3.992 7.871 3.992V3.992ZM7.673 10.427C7.453 10.427 7.255 10.493 7.101 10.647C6.947 10.79 6.87 10.977 6.87 11.208C6.87 11.428 6.947 11.615 7.101 11.769C7.255 11.923 7.453 12 7.673 12C7.893 12 8.091 11.923 8.245 11.78C8.399 11.626 8.487 11.439 8.487 11.208C8.487 10.977 8.41 10.79 8.256 10.647C8.102 10.493 7.904 10.427 7.673 10.427Z" fill="white"/>
</svg>
