<svg width="180" height="43" viewBox="0 0 180 43" fill="none" xmlns="http://www.w3.org/2000/svg">
<path fill-rule="evenodd" clip-rule="evenodd" d="M48.9739 29.8385H50.6336V17.4469H48.9739V29.8385ZM54.5915 29.8385H52.9317V17.4446C52.9317 17.4442 53.927 17.4435 53.9313 17.4435C54.306 17.4435 54.5915 17.6888 54.5915 18.1529V29.8385V29.8385ZM56.8896 37.0146C56.8896 36.3925 56.3546 35.8911 55.7199 35.8911C55.0854 35.8911 54.5915 36.3925 54.5915 37.0146H56.8896ZM54.5915 37.0146V38.6835H52.9317V32.0915H56.8896V17.4374C56.8896 16.1931 55.8695 15.1938 54.6005 15.1938H52.9317V12.2637C52.9317 11.6415 52.4173 11.1371 51.7826 11.1371C51.1481 11.1371 50.6336 11.6415 50.6336 12.2637V15.1938H47.8045C47.17 15.1938 46.6755 15.6976 46.6755 16.3198V32.0915H50.6336V38.6835H47.8045C47.17 38.6835 46.6555 39.1878 46.6555 39.8101C46.6555 40.4323 47.17 40.9365 47.8045 40.9365H56.8896V37.0146H54.5915ZM77.0569 22.5752H68.6288V20.2953H74.8148V16.6642C74.8148 16.0347 74.3129 15.5243 73.6939 15.5243H68.6288V13.2441H74.8148C76.0605 13.2441 77.0569 14.2716 77.0569 15.5308V22.5752ZM75.3983 28.9706C75.3897 29.3959 75.0217 31.42 73.0257 33.8016C71.2131 31.2627 70.9142 28.9648 70.9142 28.9648L68.6532 28.9617C68.6532 28.9617 68.8876 32.0852 71.4706 35.406C70.1076 36.6348 68.9898 37.782 66.5217 38.9691L67.4655 40.9287C70.1145 39.6559 71.4079 38.4044 72.9324 37.0349C74.4653 38.5232 75.7003 39.8287 78.5168 40.9365L79.4649 38.9767C76.8706 38.0506 75.8274 36.8662 74.4587 35.4944C77.5967 31.911 77.7358 28.5785 77.6923 27.8422C77.6932 27.8176 77.6923 27.8671 77.6923 27.8422C77.6923 26.5925 76.6733 25.5853 75.4163 25.5853H68.6109V27.8482H74.3011H74.3005C74.8906 27.865 75.3979 28.3612 75.3979 28.9706" fill="white"/>
<path fill-rule="evenodd" clip-rule="evenodd" d="M64.6659 20.3565H60.6674V15.601H63.5296C64.161 15.601 64.6659 16.1111 64.6659 16.7372V20.3565ZM66.9389 15.7422V15.5233C66.9389 14.2681 65.9319 13.2507 64.6766 13.2507L58.3947 13.2441V40.9365H60.6674V33.5715H68.3278C68.3278 33.5715 67.5601 32.3888 67.2755 31.2988H60.6674V28.0581H66.9389V25.7855H60.6674V22.5451H66.9389V15.7422V15.7422ZM114.08 39.5214L115.619 40.9365C117.876 38.761 118.811 37.2839 119.197 36.4214H116.734C115.837 38.0598 114.08 39.5214 114.08 39.5214ZM123.166 36.4214H120.702C121.088 37.2837 122.024 38.7609 124.281 40.9365L125.819 39.5214C125.819 39.5214 124.062 38.0598 123.166 36.4214V36.4214ZM122.346 19.3979H117.554V14.908L121.202 14.906C121.826 14.906 122.346 15.4227 122.346 16.0452V19.3979ZM117.554 26.1537H122.346V21.6638H117.554V26.1537ZM117.554 32.9515H122.346V28.4196H117.554V32.9515ZM115.284 35.2174H124.615V32.9935L124.597 14.824C124.564 13.6072 123.561 12.6421 122.329 12.6421H116.422C115.795 12.6421 115.287 13.1456 115.287 13.775H115.284V35.2174V35.2174ZM137.37 33.6936V31.4354H142.83V33.6936H137.37ZM129.576 32.4279V31.4354H135.119V33.6936H129.576V32.4279V32.4279ZM129.576 29.1773H135.119V26.9608H129.576V29.1773ZM137.37 29.1773V26.9608H141.705V26.9603H141.712C142.323 26.9603 142.83 27.4576 142.83 28.071V29.1773H137.37V29.1773ZM145.081 26.9608C145.081 25.7198 144.078 24.7027 142.841 24.7027H142.83L128.451 24.6823C127.825 24.6843 127.324 25.1966 127.324 25.816L127.325 40.6355H129.576V35.9517H142.83V36.1314C142.83 37.3786 141.831 38.3834 140.587 38.3834C140.585 38.3834 140.582 38.3833 140.579 38.3833V40.5858C140.663 40.5905 140.737 40.5931 140.82 40.5931C143.179 40.5931 145.084 38.6739 145.084 36.3066C145.084 36.2536 145.083 36.2007 145.081 36.148V26.9608V26.9608ZM133.103 16.8989H139.576V15.4461H133.103V16.8989ZM133.103 20.6348H139.576V19.1404H133.103V20.6348ZM146.589 21.7511C146.589 21.1333 146.086 20.6281 145.465 20.626V20.6348H141.831V19.1404H144.079C144.702 19.1404 145.207 18.6386 145.207 18.0197C145.207 17.4007 144.702 16.8989 144.079 16.8989H141.831V15.4461H144.838V15.4265C145.465 15.4253 145.964 14.9241 145.964 14.3059C145.964 13.6877 145.465 13.1863 144.838 13.1852V13.2044H141.831V11.9568C141.831 11.3379 141.327 10.8361 140.704 10.8361C140.081 10.8361 139.576 11.3379 139.576 11.9568V13.2044H133.103V11.9568C133.103 11.3379 132.598 10.8361 131.975 10.8361C131.353 10.8361 130.848 11.3379 130.848 11.9568V13.2044H127.747C127.124 13.2044 126.619 13.7063 126.619 14.3252C126.619 14.9443 127.124 15.4461 127.747 15.4461H130.848V16.8989H128.619C127.997 16.8989 127.492 17.4007 127.492 18.0197C127.492 18.6386 127.997 19.1404 128.619 19.1404H130.848V20.6348H127.248C126.625 20.6348 126.12 21.1365 126.12 21.7554C126.12 22.3745 126.625 22.8763 127.248 22.8763H145.465H145.461H145.463C146.085 22.8763 146.589 22.3695 146.589 21.7511ZM145.236 20.9197H145.233H145.236ZM161.639 27.5415L159.89 26.0577C159.89 26.0577 159.128 26.8992 157.778 28.0403V20.1211H161.238V17.8694H157.778V11.962C157.778 11.3403 157.268 10.8361 156.639 10.8361C156.01 10.8361 155.5 11.3403 155.5 11.962V17.8694H153.525C153.597 16.9939 153.639 16.0123 153.639 14.9805C153.639 14.9805 153.639 14.9843 153.638 14.9845C153.639 14.9651 153.639 14.9473 153.639 14.9277C153.639 14.3058 153.129 13.8029 152.5 13.8029C151.871 13.8029 151.361 14.3166 151.361 14.9383C151.361 14.9672 151.362 14.9924 151.365 15.0341H151.361C151.361 15.0341 151.631 20.5149 148.997 26.3142L150.873 27.4152C150.873 27.4152 152.507 25.0412 153.263 20.1211H155.5V29.7718C153.812 30.9306 151.694 32.1275 149.252 32.9819L150.255 34.8367C150.255 34.8367 152.546 34.133 155.5 32.3885V40.6355H157.778V30.8986C159.044 29.9726 160.384 28.8613 161.639 27.5415" fill="white"/>
<path fill-rule="evenodd" clip-rule="evenodd" d="M177.717 32.0823V32.124C177.692 35.5757 174.832 38.3654 171.332 38.3786V40.6355C176.106 40.6203 180 36.8003 180 32.0902V17.9253C180 17.8818 179.994 17.8381 179.994 17.794C179.994 15.9293 178.457 14.411 176.565 14.411C176.52 14.411 176.472 14.4078 176.428 14.4078H165.949C166.033 13.6237 166.076 12.8076 166.065 11.9617C166.065 11.34 165.554 10.8361 164.923 10.8361C164.293 10.8361 163.782 11.3485 163.782 11.97C163.782 11.9739 163.782 11.9899 163.782 11.9899H163.781C163.782 12.1151 164.091 18.7058 159.74 24.2077L161.413 25.4398C161.413 25.4398 164.387 22.0641 165.58 16.6587H167.937C167.548 19.6148 165.947 27.2216 159.532 32.2346L160.911 33.9651C160.911 33.9651 168.73 29.7443 170.312 16.6587H173.075C173.054 18.932 172.416 31.1532 161.413 38.6625L162.666 40.393C162.666 40.393 174.657 34.1288 175.436 16.6587H176.575C177.209 16.6674 177.698 17.174 177.705 17.7843L177.717 20.9789V32.0823V32.0823ZM87.1355 15.4222H96.0232V21.4433H86.0239L86.0125 16.5447C86.0125 15.9237 86.5032 15.4222 87.1306 15.4222H87.1355ZM107.487 21.4433H98.2825V15.4222H107.339C107.464 15.4222 107.873 15.4538 107.85 15.7658C107.85 15.7658 107.857 16.2446 106.982 17.4409L108.764 18.9197C108.764 18.9197 110.05 17.2152 110.339 15.9594C110.339 15.9594 110.64 14.7889 110.233 14.1045C109.648 13.1779 108.214 13.1643 108.214 13.1643H98.2825V11.965C98.2825 11.3416 97.7769 10.8361 97.1529 10.8361C96.529 10.8361 96.0232 11.3416 96.0232 11.965V13.1643H87.133C85.2613 13.1643 83.7644 14.7106 83.7644 16.5812V20.6489H83.7511L83.763 26.2363C83.763 35.0874 80.3679 38.9793 80.3679 38.9793L82.1485 40.511C86.282 35.8076 85.9984 27.8803 85.9984 27.8803L86.0065 23.7011H106.292C107.696 23.7011 107.199 24.8327 107.199 24.8327C105.459 28.5091 102.102 31.0935 98.7644 33.2402C95.2693 31.0677 92.2996 28.8861 90.0144 24.8302H87.6952C87.6952 24.8302 89.2962 29.7182 96.6883 34.4941C91.1228 37.3052 85.75 38.5232 85.75 38.5232L86.5776 40.6345C92.4384 39.1188 95.9772 37.5772 98.7765 35.8594C102.14 37.8123 106.34 39.5156 111.954 40.6355L112.575 38.5255C112.575 38.5255 106.844 37.6454 100.898 34.5017C109.769 28.8719 109.719 23.7011 109.719 23.7011H109.709C109.708 22.4886 108.714 21.4433 107.48 21.4433H107.487ZM25.9141 31.7636C25.665 33.8018 24.4191 35.4341 22.4891 36.2516C21.4145 36.7069 19.9714 36.9526 18.8291 36.8756C17.0471 36.8081 15.3732 36.3785 13.8302 35.5931C13.2789 35.3127 12.4571 34.7521 11.8262 34.2272C11.6663 34.0945 11.6473 34.0096 11.753 33.8609C11.8102 33.7754 11.9154 33.6216 12.1483 33.2835C12.4857 32.7934 12.5279 32.7318 12.5659 32.6743C12.6738 32.5101 12.8493 32.4958 13.0223 32.6308C13.0406 32.6449 13.0406 32.6449 13.0544 32.6555C13.0826 32.6772 13.0826 32.6772 13.1496 32.7289C13.2175 32.7811 13.2577 32.812 13.274 32.8243C14.938 34.1162 16.8762 34.8615 18.8329 34.9359C21.5551 34.8992 23.5128 33.6858 23.8634 31.8227C24.2493 29.772 22.6255 28.0008 19.4485 27.0136C18.4549 26.7048 15.9435 25.7084 15.4806 25.4391C13.3058 24.1745 12.2891 22.5178 12.4338 20.4716C12.6552 17.6352 15.3115 15.5196 18.6677 15.5057C20.1687 15.5027 21.6665 15.8117 23.1054 16.4129C23.6149 16.6258 24.5246 17.1164 24.8386 17.3488C25.0194 17.4805 25.0551 17.6339 24.9515 17.7996C24.8936 17.8954 24.7978 18.0478 24.5963 18.3649L24.594 18.3685C24.3282 18.7865 24.32 18.7995 24.259 18.8973C24.1538 19.0561 24.0302 19.0711 23.8401 18.9517C22.3005 17.9263 20.5936 17.4104 18.7164 17.3732C16.3793 17.4191 14.6277 18.7977 14.5123 20.676C14.4819 22.3725 15.7653 23.6109 18.5378 24.5551C24.1658 26.3479 26.3195 28.4497 25.9141 31.7636V31.7636ZM18.9638 2.47806C22.6278 2.47806 25.6145 5.92508 25.7543 10.2397H12.1736C12.3132 5.92508 15.2999 2.47806 18.9638 2.47806ZM37.9264 11.0509C37.9264 10.6029 37.5623 10.2397 37.1135 10.2397H28.311C28.0948 4.54266 23.9927 0 18.9638 0C13.935 0 9.83288 4.54266 9.61671 10.2397L0.801664 10.2399C0.359735 10.2478 0.00380193 10.6078 0.00380193 11.0509C0.00380193 11.072 0.00470715 11.093 0.00615551 11.1138H0L1.25663 38.5723C1.25663 38.6486 1.25952 38.7257 1.26532 38.8033C1.26659 38.8208 1.26803 38.8381 1.26948 38.8555L1.2722 38.9135L1.27509 38.9166C1.4661 40.8272 2.86484 42.3659 4.76708 42.437L4.77142 42.4413H32.7339C32.7471 42.4415 32.7603 42.4415 32.7737 42.4415C32.7869 42.4415 32.8002 42.4415 32.8134 42.4413H32.8729L32.8742 42.4402C34.8094 42.3878 36.377 40.8274 36.5427 38.8931L36.5436 38.8922L36.5449 38.8661C36.5465 38.8459 36.5479 38.8255 36.5492 38.8052C36.5523 38.7565 36.5543 38.708 36.555 38.6596L37.9262 11.0926H37.9253C37.9261 11.0789 37.9264 11.0648 37.9264 11.0509" fill="white"/>
</svg>
